# xmcd
#
# Track frame offsets:
#	150
#	23294
#	44539
#	67354
#	86246
#	114236
#	136232
#	161287
#	182544
#	195200
#	213077
#	226993
#	242705
#	256385
#	273204
#	292409
#	316430
#	334276
#	351423
#
# Disc length: 4779 seconds
#
# Revision: 1
# Processed by: cddbd v1.5.2PL0 Copyright (c) Steve Scherf et al.
# Submitted via: EasyCDDAExtractor 8.2.3.1
#
DISCID=1712a913
DTITLE=TONY JOE WHITE - The Best of... part-1   79'40''
DYEAR=2004
DGENRE=Blues
TTITLE0=Ain't Going Down This Time
TTITLE1=Let the Healing Begin
TTITLE2=I Want My Fleetwood Back
TTITLE3=All Those Tomorrows
TTITLE4=The Path of a Decent Groove
TTITLE5=Even Trlls Love Rock&Roll
TTITLE6=Ol' Black Crow
TTITLE7=The Daddy
TTITLE8=Hard to Handle
TTITLE9=Steamy Windows
TTITLE10=Voodoo Village
TTITLE11=Mojo Dollar
TTITLE12=Roosevelt and Ira Lee (Night of the Mossacin)
TTITLE13=Five Summers For Jimmy
TTITLE14=Down By the Border
TTITLE15=Lake Placid Blues
TTITLE16=The Migrant
TTITLE17=On the Return to Muscle Shoals
TTITLE18=Wampus Kitty
EXTD=
EXTT0=
EXTT1=
EXTT2=
EXTT3=
EXTT4=
EXTT5=
EXTT6=
EXTT7=
EXTT8=
EXTT9=
EXTT10=
EXTT11=
EXTT12=
EXTT13=
EXTT14=
EXTT15=
EXTT16=
EXTT17=
EXTT18=
PLAYORDER=
